<?xml version="1.0" encoding="UTF-8" standalone="no"?>
<!-- Created with Inkscape (http://www.inkscape.org/) -->

<svg
   xmlns:dc="http://purl.org/dc/elements/1.1/"
   xmlns:cc="http://creativecommons.org/ns#"
   xmlns:rdf="http://www.w3.org/1999/02/22-rdf-syntax-ns#"
   xmlns:svg="http://www.w3.org/2000/svg"
   xmlns="http://www.w3.org/2000/svg"
   xmlns:sodipodi="http://sodipodi.sourceforge.net/DTD/sodipodi-0.dtd"
   xmlns:inkscape="http://www.inkscape.org/namespaces/inkscape"
   width="90"
   height="90"
   id="svg3355"
   version="1.1"
   inkscape:version="0.91 r13725"
   sodipodi:docname="myusi.svg">
  <defs
     id="defs3357" />
  <sodipodi:namedview
     id="base"
     pagecolor="#ffffff"
     bordercolor="#666666"
     borderopacity="1.0"
     inkscape:pageopacity="0.0"
     inkscape:pageshadow="2"
     inkscape:zoom="8.9957262"
     inkscape:cx="43.584164"
     inkscape:cy="64.552411"
     inkscape:document-units="px"
     inkscape:current-layer="layer1"
     showgrid="false"
     inkscape:window-width="1920"
     inkscape:window-height="1041"
     inkscape:window-x="1920"
     inkscape:window-y="0"
     inkscape:window-maximized="1" />
  <metadata
     id="metadata3360">
    <rdf:RDF>
      <cc:Work
         rdf:about="">
        <dc:format>image/svg+xml</dc:format>
        <dc:type
           rdf:resource="http://purl.org/dc/dcmitype/StillImage" />
        <dc:title></dc:title>
      </cc:Work>
    </rdf:RDF>
  </metadata>
  <g
     inkscape:label="Calque 1"
     inkscape:groupmode="layer"
     id="layer1"
     transform="translate(0,-962.36217)">
    <g
       id="g3536">
      <path
         style="fill:#0c97d0"
         inkscape:connector-curvature="0"
         id="path177"
         d="M 38.409885,983.70178 C 38.409885,983.70178 38.672972,983.90099 39.113986,984.26901 39.553479,984.63703 40.175461,985.17081 40.890207,985.83689 41.249101,986.16841 41.639931,986.52731 42.036843,986.92118 42.436797,987.31201 42.864124,987.71956 43.285369,988.15906 43.708134,988.59703 44.156751,989.04108 44.591682,989.50947 45.026613,989.97938 45.466106,990.45537 45.90712,990.93288 46.34053,991.418 46.77394,991.90007 47.190622,992.38519 47.614908,992.86422 48.008779,993.35542 48.40265,993.82076 49.182788,994.75754 49.88689,995.65173 50.472374,996.43795 51.06242,997.21657 51.530807,997.88873 51.851682,998.36473 52.174079,998.8392 52.345922,999.12205 52.345922,999.12205 52.345922,999.12205 52.081314,998.92284 51.641821,998.55482 51.202328,998.1868 50.580346,997.65454 49.864079,996.98846 49.141728,996.32846 48.323572,995.53615 47.470438,994.66477 47.047673,994.2268 46.597535,993.78426 46.164125,993.31436 45.723111,992.85053 45.286659,992.36998 44.848687,991.88943 44.418318,991.40279 43.98947,990.91615 43.565184,990.43712 43.142419,989.95657 42.748548,989.46537 42.354677,989.00002 41.959286,988.5362 41.59735,988.07085 41.249101,987.63288 40.897811,987.19795 40.578456,986.77519 40.284954,986.38284 39.693387,985.60422 39.226521,984.93205 38.904124,984.45758 38.581728,983.98463 38.409885,983.70178 38.409885,983.70178 Z" />
      <path
         style="fill:#0c97d0"
         inkscape:connector-curvature="0"
         id="path181"
         d="M 52.797581,984.43933 C 52.797581,984.43933 52.612051,984.71307 52.268364,985.17233 51.924678,985.63159 51.425876,986.28095 50.799332,987.03219 50.487581,987.40933 50.149977,987.81689 49.778917,988.23509 49.410899,988.65634 49.027673,989.10496 48.610991,989.54901 48.19583,989.99459 47.779148,990.46754 47.335092,990.9268 46.889516,991.38606 46.437857,991.85141 45.986198,992.31827 45.525415,992.77602 45.067673,993.2368 44.605369,993.67933 44.150668,994.12795 43.68076,994.54767 43.236705,994.9674 42.344032,995.7962 41.489378,996.54896 40.736613,997.17551 39.991451,997.80814 39.345138,998.3115 38.887396,998.65823 38.431175,999.00496 38.157442,999.19201 38.157442,999.19201 38.157442,999.19201 38.341451,998.91827 38.685138,998.45749 39.028825,997.99823 39.526106,997.34887 40.15265,996.59763 40.77311,995.8403 41.519793,994.97956 42.342511,994.08081 42.757673,993.63523 43.174355,993.16228 43.619931,992.70302 44.057903,992.23767 44.515645,991.77689 44.970346,991.31155 45.43265,990.85532 45.894954,990.40062 46.351175,989.95201 46.807396,989.50339 47.275784,989.08367 47.719839,988.66546 48.160853,988.24574 48.606429,987.85795 49.024632,987.48689 49.439793,987.11279 49.84583,986.77062 50.219931,986.45735 50.965093,985.82473 51.611406,985.32136 52.067627,984.97463 52.525369,984.62638 52.797581,984.43933 52.797581,984.43933 Z" />
      <ellipse
         style="fill:#f6b234"
         id="ellipse185"
         ry="13.327743"
         rx="13.317098"
         cy="977.24927"
         cx="29.099932" />
      <polygon
         transform="matrix(1.5207374,0,0,1.5207374,-38.75081,922.87684)"
         style="fill:#d19829"
         id="polygon187"
         points="44.823,27.037 36.226,38.301 51.466,40.969 " />
      <ellipse
         style="fill:#7fb552"
         id="ellipse191"
         ry="13.327743"
         rx="13.317098"
         cy="977.24927"
         cx="60.898552" />
      <polygon
         transform="matrix(1.5207374,0,0,1.5207374,-38.75081,922.87684)"
         style="fill:#6c9b42"
         id="polygon193"
         points="73.782,38.301 64.439,27.089 59.065,41.666 " />
      <path
         style="fill:#77c2bd"
         inkscape:connector-curvature="0"
         id="path197"
         d="M 73.929745,1002.8798 C 75.445925,1010.082 70.844175,1017.1519 63.648045,1018.6711 56.451913,1020.1903 49.386567,1015.584 47.868871,1008.3818 46.351175,1001.1811 50.954447,994.11122 58.150577,992.59201 65.346705,991.07279 72.410535,995.6791 73.929745,1002.8798 Z" />
      <polygon
         transform="matrix(1.5207374,0,0,1.5207374,-38.75081,922.87684)"
         style="fill:#66a5a1"
         id="polygon199"
         points="64.612,63.192 73.877,52.457 58.708,49.057 " />
      <path
         style="fill:#e23b3e"
         inkscape:connector-curvature="0"
         id="path203"
         d="M 40.345783,1012.7707 C 36.405553,1018.9859 28.176843,1020.8275 21.967672,1016.8858 15.75698,1012.9425 13.915367,1004.7092 17.855598,998.49247 21.794308,992.27721 30.023018,990.4356 36.233709,994.37735 42.444401,998.32062 44.284493,1006.5554 40.345783,1012.7707 Z" />
      <polygon
         transform="matrix(1.5207374,0,0,1.5207374,-38.75081,922.87684)"
         style="fill:#c23035"
         id="polygon205"
         points="36.07,52.267 44.928,63.095 51.519,49.129 " />
      <ellipse
         stroke-miterlimit="10"
         cx="45.326199"
         cy="991.69629"
         rx="16.808712"
         ry="16.820877"
         id="ellipse207"
         style="fill:none;stroke:#ffffff;stroke-width:0.78804606;stroke-miterlimit:10" />
    </g>
    <path
       d="M 38.397996,983.68926 C 38.397996,983.68926 38.658883,983.89789 39.076294,984.26299 39.49371,984.6281 40.119832,985.14967 40.850306,985.82772 41.21554,986.1407 41.580774,986.50577 41.998191,986.92303 42.415601,987.28816 42.833016,987.70541 43.250432,988.1748 43.667843,988.59206 44.137435,989.0615 44.554846,989.53089 44.972262,990.00033 45.441849,990.46978 45.859265,990.93916 46.276676,991.40861 46.746269,991.93018 47.163679,992.39956 47.581096,992.86901 47.998512,993.39058 48.363746,993.85997 49.146397,994.79886 49.824695,995.6855 50.450816,996.46789 51.024756,997.25022 51.494348,997.92829 51.807406,998.39773 52.12047,998.86712 52.276999,999.18006 52.276999,999.18006 52.276999,999.18006 52.016117,998.97143 51.546525,998.60636 51.129114,998.24123 50.502993,997.71966 49.772518,997.04159 49.042044,996.36357 48.207217,995.58118 47.37239,994.69454 46.954974,994.27728 46.485387,993.80784 46.067971,993.33839 45.65056,992.86901 45.180968,992.39956 44.763551,991.93018 44.346141,991.46073 43.928724,990.93916 43.459137,990.46978 43.041721,990.00033 42.624311,989.47876 42.259072,989.00931 41.841662,988.53993 41.476422,988.07048 41.163364,987.65323 40.798124,987.23597 40.485066,986.81871 40.224184,986.40145 39.650239,985.61909 39.180646,984.94104 38.867588,984.47162 38.55453,983.95005 38.397996,983.68926 38.397996,983.68926"
       id="path79"
       inkscape:connector-curvature="0"
       style="fill:#0c97d0" />
    <path
       d="M 52.798768,984.41947 C 52.798768,984.41947 52.590057,984.68025 52.276999,985.14967 51.911759,985.61909 51.442172,986.24501 50.816051,987.02734 50.502993,987.39247 50.189929,987.80973 49.772518,988.22699 49.407278,988.64424 49.042044,989.11363 48.624628,989.53089 48.207217,990.00033 47.789801,990.46978 47.37239,990.88703 46.902798,991.35642 46.485387,991.82586 46.015794,992.29525 45.546202,992.76469 45.076615,993.23408 44.659199,993.65134 44.189612,994.12078 43.720019,994.53804 43.302608,994.9553 42.415601,995.78981 41.528598,996.52002 40.798124,997.1459 40.067655,997.77179 39.389357,998.29342 38.971941,998.60636 38.55453,998.91931 38.241467,999.12794 38.241467,999.12794 38.241467,999.12794 38.450172,998.86712 38.763236,998.39773 39.12847,997.92829 39.598063,997.3024 40.224184,996.52002 40.850306,995.78981 41.580774,994.90317 42.415601,994.01647 42.833016,993.54702 43.250432,993.07764 43.667843,992.66038 44.085259,992.19094 44.554846,991.72155 45.024439,991.25211 45.494025,990.78272 45.963618,990.36546 46.433211,989.89602 46.902798,989.42657 47.37239,989.00931 47.789801,988.59206 48.207217,988.1748 48.676804,987.80973 49.09422,987.39247 49.511631,987.02734 49.929047,986.66227 50.294281,986.34933 51.024756,985.72341 51.703054,985.20183 52.12047,984.88889 52.537881,984.6281 52.798768,984.41947 52.798768,984.41947"
       id="path81"
       inkscape:connector-curvature="0"
       style="fill:#0c97d0" />
    <path
       d="M 29.110547,963.92152 C 36.46746,963.92152 42.415601,969.86749 42.415601,977.27387 42.415601,984.6281 36.46746,990.62622 29.110547,990.62622 21.753628,990.62622 15.805487,984.68025 15.805487,977.27387 15.753282,969.86749 21.753628,963.92152 29.110547,963.92152"
       id="path83"
       inkscape:connector-curvature="0"
       style="fill:#d3b771" />
    <polygon
       points="392.5,166.7 367.4,199.5 411.8,207.3 "
       id="polygon85"
       style="fill:#af8b38;fill-opacity:1"
       transform="matrix(0.52176701,0,0,0.52157622,-175.36995,877.02692)" />
    <path
       d="M 60.886155,963.92152 C 68.243068,963.92152 74.191215,969.86749 74.191215,977.27387 74.191215,984.6281 68.243068,990.62622 60.886155,990.62622 53.529242,990.62622 47.581096,984.68025 47.581096,977.27387 47.581096,969.86749 53.529242,963.92152 60.886155,963.92152"
       id="path87"
       inkscape:connector-curvature="0"
       style="fill:#80ec40" />
    <polygon
       points="476.9,199.5 449.7,166.8 434,209.4 "
       id="polygon89"
       style="fill:#80bb52"
       transform="matrix(0.52176701,0,0,0.52157622,-175.36995,877.02692)" />
    <path
       d="M 73.930328,1002.8833 C 75.443453,1010.081 70.851902,1017.1745 63.651518,1018.6871 56.451133,1020.1996 49.355102,1015.6098 47.841977,1008.412 46.328852,1001.2142 50.920403,994.12078 58.120787,992.60819 65.373354,991.04348 72.417203,995.6855 73.930328,1002.8833"
       id="path91"
       inkscape:connector-curvature="0"
       style="fill:#08ffff" />
    <polygon
       points="450.2,272.1 477.2,240.8 432.9,230.9 "
       id="polygon93"
       style="fill:#00c9e5"
       transform="matrix(0.52176701,0,0,0.52157622,-175.36995,877.02692)" />
    <path
       d="M 40.328537,1012.7411 C 36.363108,1018.9478 28.171362,1020.8255 21.962339,1016.8615 15.753311,1012.8975 13.927122,1004.6566 17.840375,998.44986 21.805805,992.24312 29.99755,990.41759 36.206579,994.32941 42.415601,998.29342 44.293964,1006.5344 40.328537,1012.7411"
       id="path95"
       inkscape:connector-curvature="0"
       style="fill:#ff325e" />
    <polygon
       points="366.9,240.3 392.8,271.8 412,231.1 "
       id="polygon97"
       style="fill:#ce3246"
       transform="matrix(0.52176701,0,0,0.52157622,-175.36995,877.02692)" />
    <path
       d="M 45.337496,1008.8814 C 35.841339,1008.8814 28.119186,1001.162 28.119186,991.66936 28.119186,982.17669 35.841339,974.45736 45.337496,974.45736 54.833656,974.45736 62.555809,982.17669 62.555809,991.66936 62.555809,1001.162 54.833656,1008.8814 45.337496,1008.8814 Z M 45.337496,975.23972 C 36.258755,975.23972 28.901836,982.59395 28.901836,991.66936 28.901836,1000.7448 36.258755,1008.0991 45.337496,1008.0991 54.416246,1008.0991 61.773159,1000.7448 61.773159,991.66936 61.720953,982.59395 54.364069,975.23972 45.337496,975.23972 Z"
       id="path99"
       inkscape:connector-curvature="0"
       style="fill:#ffffff" />
    <path
       style="fill:#ffffff"
       inkscape:connector-curvature="0"
       d="M 55.163849,1050.7009 C 51.039609,1050.7009 47.911452,1048.029 47.911452,1044.0629 L 47.911452,1031.3267 50.983342,1031.3267 50.983342,1043.9275 C 50.983342,1046.4915 52.633342,1048.0837 55.163849,1048.0837 57.695877,1048.0837 59.37325,1046.4915 59.37325,1043.9275 L 59.37325,1031.3252 62.44514,1031.3252 62.44514,1044.0614 C 62.44514,1048.0305 59.288089,1050.7009 55.163849,1050.7009 Z"
       id="path219" />
    <path
       style="fill:#ffffff"
       inkscape:connector-curvature="0"
       d="M 71.659287,1050.7009 C 68.616292,1050.7009 66.42643,1050.0257 64.492052,1048.1643 L 66.540485,1046.2482 C 68.020163,1047.6518 69.641269,1048.0822 71.717075,1048.0822 74.361638,1048.0822 75.897583,1047.0025 75.897583,1045.1411 75.897583,1044.3047 75.642099,1043.6036 75.100716,1043.1444 74.588228,1042.6851 74.07726,1042.4965 72.88196,1042.3353 L 70.492882,1042.0114 C 68.842882,1041.7955 67.535048,1041.2556 66.65302,1040.4739 65.656937,1039.5828 65.173342,1038.3692 65.173342,1036.8044 65.173342,1033.4588 67.732743,1031.164 71.942145,1031.164 74.615601,1031.164 76.492191,1031.8118 78.227352,1033.3493 L 76.26408,1035.1848 C 75.012513,1034.0519 73.56173,1033.7006 71.855463,1033.7006 69.466384,1033.7006 68.15855,1034.9962 68.15855,1036.6964 68.15855,1037.3975 68.386661,1038.0195 68.926522,1038.4772 69.439011,1038.9091 70.263251,1039.233 71.201545,1039.3684 L 73.505463,1039.6923 C 75.382053,1039.963 76.434403,1040.3933 77.287537,1041.1218 78.396154,1042.0388 78.937537,1043.415 78.937537,1045.062 78.940578,1048.5962 75.897583,1050.7009 71.659287,1050.7009 Z"
       id="path221" />
    <path
       style="fill:#ffffff"
       inkscape:connector-curvature="0"
       d="M 81.927306,1050.5397 81.927306,1031.3267 84.999196,1031.3267 84.999196,1050.5397 81.927306,1050.5397 Z"
       id="path223" />
    <path
       style="fill:#ffffff"
       inkscape:connector-curvature="0"
       d="M 20.335921,1050.8028 20.335921,1037.7731 15.498455,1047.2716 13.139792,1047.2716 8.1852291,1037.7731 8.1852291,1050.8028 5.000805,1050.8028 5.000805,1031.3115 8.1852291,1031.3115 14.319884,1043.4379 20.335921,1031.3115 23.521866,1031.3115 23.521866,1050.8013 20.335921,1050.8013 Z"
       id="path227" />
    <path
       style="fill:#ffffff"
       inkscape:connector-curvature="0"
       d="M 35.84288,1042.7824 35.84288,1050.8028 32.656935,1050.8028 32.656935,1042.7824 26.374769,1031.3115 29.855737,1031.3115 34.249147,1039.8793 38.644078,1031.3115 42.125046,1031.3115 35.84288,1042.7824 Z"
       id="path229" />
  </g>
</svg>
